<svg width="325" height="57" viewBox="0 0 325 57" fill="none" xmlns="http://www.w3.org/2000/svg">
<path fill-rule="evenodd" clip-rule="evenodd" d="M16.1171 30.0555C16.0481 29.4477 16.0127 28.8297 16.0127 28.2035C16.0127 26.3091 16.3371 24.4904 16.9335 22.8001C15.1679 21.446 10.4385 19.0332 3.42948 18.6527C3.41664 18.8693 3.41013 19.0877 3.41013 19.3076C3.41013 25.3261 8.2891 30.205 14.3076 30.205C14.9241 30.205 15.5286 30.1538 16.1171 30.0555ZM4.40014 14.7628C8.0754 15.3625 15.4417 17.0214 18.6174 19.38C19.9771 17.2838 21.8073 15.5211 23.9583 14.2412C22.1345 10.7742 18.4971 8.41008 14.3076 8.41008C9.91119 8.41008 6.12284 11.0135 4.40014 14.7628ZM16.8582 33.3885C16.0305 33.5374 15.1781 33.6152 14.3076 33.6152C13.4185 33.6152 12.5484 33.5341 11.7042 33.3789C10.4989 34.9967 9.7855 37.0026 9.7855 39.1751C9.7855 41.4738 10.5842 43.5861 11.9193 45.2494L18.9484 37.5174C18.0663 36.2602 17.358 34.8723 16.8582 33.3885ZM21.2378 40.135L14.8019 47.6782C16.1934 48.4481 17.7939 48.8864 19.4969 48.8864C23.1548 48.8864 26.3405 46.864 27.9965 43.8762C25.4377 43.1838 23.1296 41.8815 21.2378 40.135ZM0 19.3076C0 25.1763 3.53346 30.2198 8.58901 32.4266C7.37365 34.3869 6.67197 36.699 6.67197 39.1751C6.67197 46.2581 12.4139 52 19.4969 52C24.7168 52 29.2084 48.8815 31.2101 44.4059C31.5532 44.4275 31.8991 44.4385 32.2477 44.4385C41.214 44.4385 48.4827 37.1698 48.4827 28.2035C48.4827 19.2371 41.214 11.9685 32.2477 11.9685C30.4338 11.9685 28.6893 12.2659 27.0605 12.8148C24.6943 8.17635 19.8719 5 14.3076 5C6.40572 5 0 11.4057 0 19.3076ZM44.4795 28.2035C44.4795 34.9589 39.0032 40.4353 32.2477 40.4353C27.4364 40.4353 23.274 37.6575 21.2766 33.6183L44.3282 26.2737C44.4278 26.9023 44.4795 27.5468 44.4795 28.2035ZM43.2191 22.7893L20.1784 30.203C20.0715 29.5523 20.0158 28.8844 20.0158 28.2035C20.0158 21.448 25.4922 15.9716 32.2477 15.9716C37.0592 15.9716 41.2218 18.7497 43.2191 22.7893Z" fill="#F06536"/>
<path d="M86.5627 13.4H85.1867C85.1227 12.3547 84.9627 11.4907 84.7067 10.808C84.472 10.104 84.1307 9.54933 83.6827 9.144C83.2347 8.71733 82.6907 8.42933 82.0507 8.28C81.4107 8.10933 80.664 8.024 79.8107 8.024C78.9787 8.024 78.3067 8.04533 77.7947 8.088C77.304 8.10933 76.92 8.16267 76.6427 8.248C76.3867 8.312 76.216 8.408 76.1307 8.536C76.0454 8.664 76.0027 8.824 76.0027 9.016V25.784C76.0027 26.4667 76.0454 27.0533 76.1307 27.544C76.2374 28.0347 76.44 28.44 76.7387 28.76C77.0374 29.0587 77.4747 29.2933 78.0507 29.464C78.6267 29.6133 79.384 29.6987 80.3227 29.72V31H66.9147V29.72C67.8747 29.6987 68.6427 29.6133 69.2187 29.464C69.7947 29.2933 70.232 29.0587 70.5307 28.76C70.8507 28.44 71.0534 28.0347 71.1387 27.544C71.2454 27.0533 71.2987 26.4667 71.2987 25.784V9.016C71.2987 8.824 71.256 8.664 71.1707 8.536C71.1067 8.408 70.9574 8.312 70.7227 8.248C70.488 8.16267 70.1467 8.10933 69.6987 8.088C69.272 8.04533 68.7067 8.024 68.0027 8.024C67.2347 8.024 66.4987 8.06667 65.7947 8.152C65.0907 8.216 64.472 8.42933 63.9387 8.792C63.4054 9.13333 62.968 9.66667 62.6267 10.392C62.3067 11.096 62.136 12.0987 62.1147 13.4H60.8667L61.1867 6.36H86.2427L86.5627 13.4ZM94.2074 26.04C94.2074 26.872 94.2394 27.5333 94.3034 28.024C94.3888 28.4933 94.5488 28.856 94.7834 29.112C95.0181 29.368 95.3594 29.5387 95.8074 29.624C96.2554 29.688 96.8528 29.72 97.5994 29.72V31H86.9114V29.72C87.5514 29.6773 88.0634 29.6133 88.4474 29.528C88.8314 29.4427 89.1194 29.272 89.3114 29.016C89.5034 28.76 89.6208 28.3973 89.6634 27.928C89.7274 27.4373 89.7594 26.7867 89.7594 25.976V22.072C89.7594 20.7493 89.7274 19.6933 89.6634 18.904C89.5994 18.1147 89.4608 17.5067 89.2474 17.08C89.0341 16.6533 88.7248 16.376 88.3194 16.248C87.9354 16.0987 87.4234 16.024 86.7834 16.024V14.904L93.1834 13.72L93.6954 17.4H93.8234C94.3994 16.2693 95.1568 15.3733 96.0954 14.712C97.0341 14.0507 98.0261 13.72 99.0714 13.72C99.8821 13.72 100.543 13.9227 101.055 14.328C101.567 14.7333 101.823 15.2453 101.823 15.864C101.823 16.5467 101.621 17.1227 101.215 17.592C100.831 18.0613 100.298 18.296 99.6154 18.296C99.2954 18.296 99.0074 18.232 98.7514 18.104C98.4954 17.976 98.2608 17.8373 98.0474 17.688C97.8554 17.5173 97.6528 17.368 97.4394 17.24C97.2474 17.0907 97.0448 17.016 96.8314 17.016C96.4261 17.016 96.0421 17.2827 95.6794 17.816C95.3168 18.3493 95.0181 19.064 94.7834 19.96C94.6128 20.6 94.4741 21.3253 94.3674 22.136C94.2608 22.9253 94.2074 23.7147 94.2074 24.504V26.04ZM116.769 19.288C116.769 18.4347 116.748 17.7627 116.705 17.272C116.662 16.76 116.545 16.376 116.353 16.12C116.161 15.8427 115.873 15.6613 115.489 15.576C115.126 15.4693 114.625 15.384 113.985 15.32V14.04H121.217V23.736C121.217 25.0373 121.228 26.0613 121.249 26.808C121.292 27.5333 121.356 28.0773 121.441 28.44C121.505 28.7173 121.58 28.9413 121.665 29.112C121.75 29.2613 121.889 29.3893 122.081 29.496C122.273 29.5813 122.529 29.6453 122.849 29.688C123.19 29.7093 123.628 29.72 124.161 29.72V30.968L117.793 31.352L117.441 28.504H117.313C116.758 29.4 115.98 30.0933 114.977 30.584C113.974 31.0747 112.854 31.32 111.617 31.32C109.334 31.32 107.596 30.5093 106.401 28.888C105.484 27.6507 105.025 25.8907 105.025 23.608V19.288C105.025 18.4133 105.004 17.7307 104.961 17.24C104.918 16.728 104.801 16.344 104.609 16.088C104.438 15.832 104.172 15.6613 103.809 15.576C103.446 15.4693 102.945 15.384 102.305 15.32V14.04H109.473V23.096C109.473 25.2507 109.74 26.8187 110.273 27.8C110.806 28.76 111.66 29.24 112.833 29.24C114.092 29.24 115.062 28.664 115.745 27.512C116.428 26.4027 116.769 24.7707 116.769 22.616V19.288ZM127.296 31H126.304V25.176H127.648C128.011 26.712 128.534 27.832 129.216 28.536C129.899 29.24 130.784 29.592 131.872 29.592C132.662 29.592 133.27 29.432 133.696 29.112C134.144 28.7707 134.368 28.312 134.368 27.736C134.368 27.1387 134.102 26.5627 133.568 26.008C133.035 25.432 132.171 24.824 130.976 24.184C129.355 23.3093 128.192 22.4453 127.488 21.592C126.784 20.7173 126.432 19.736 126.432 18.648C126.432 17.944 126.56 17.2933 126.816 16.696C127.094 16.0773 127.456 15.544 127.904 15.096C128.374 14.648 128.928 14.3067 129.568 14.072C130.208 13.816 130.902 13.688 131.648 13.688C132.31 13.688 132.96 13.784 133.6 13.976C134.262 14.168 134.838 14.4347 135.328 14.776L135.904 14.008H136.736V18.84H135.488C134.998 17.624 134.486 16.7493 133.952 16.216C133.44 15.6827 132.811 15.416 132.064 15.416C131.467 15.416 130.987 15.576 130.624 15.896C130.283 16.216 130.112 16.6427 130.112 17.176C130.112 17.7733 130.368 18.3387 130.88 18.872C131.414 19.4053 132.288 19.992 133.504 20.632C134.358 21.1013 135.094 21.56 135.712 22.008C136.331 22.456 136.832 22.9147 137.216 23.384C137.6 23.832 137.878 24.312 138.048 24.824C138.24 25.3147 138.336 25.848 138.336 26.424C138.336 27.1707 138.198 27.8427 137.92 28.44C137.643 29.0373 137.248 29.5493 136.736 29.976C136.224 30.4027 135.606 30.7333 134.88 30.968C134.176 31.2027 133.387 31.32 132.512 31.32C131.595 31.32 130.742 31.2027 129.952 30.968C129.163 30.712 128.512 30.3493 128 29.88L127.296 31ZM140.283 15.8V14.36C141.563 13.9973 142.629 13.4533 143.483 12.728C144.357 11.9813 145.008 11.128 145.435 10.168H147.067V14.04H150.747V15.8H147.067V25.624C147.067 26.9467 147.205 27.8853 147.483 28.44C147.781 28.9947 148.272 29.272 148.955 29.272C149.787 29.272 150.416 28.888 150.843 28.12L151.515 29.048C150.917 30.5627 149.509 31.32 147.291 31.32C145.819 31.32 144.667 30.9787 143.835 30.296C143.024 29.6133 142.619 28.6533 142.619 27.416V15.8H140.283ZM174.101 13.208C174.101 15.512 173.205 17.272 171.413 18.488C169.621 19.6827 167.019 20.28 163.605 20.28H160.885V25.912C160.885 26.7227 160.939 27.384 161.045 27.896C161.152 28.3867 161.376 28.7707 161.717 29.048C162.059 29.3253 162.528 29.5067 163.125 29.592C163.723 29.6773 164.523 29.72 165.525 29.72V31H152.821V29.72C153.525 29.6987 154.101 29.6347 154.549 29.528C154.997 29.4213 155.339 29.24 155.573 28.984C155.808 28.728 155.968 28.3653 156.053 27.896C156.139 27.4267 156.181 26.8187 156.181 26.072V11.288C156.181 10.5413 156.139 9.944 156.053 9.496C155.989 9.02667 155.851 8.664 155.637 8.408C155.424 8.13067 155.115 7.94933 154.709 7.864C154.325 7.75733 153.813 7.68267 153.173 7.64V6.36H164.245C167.488 6.36 169.941 6.936 171.605 8.088C173.269 9.24 174.101 10.9467 174.101 13.208ZM160.885 18.36H162.965C165.035 18.36 166.549 17.944 167.509 17.112C168.469 16.28 168.949 14.968 168.949 13.176C168.949 11.576 168.544 10.3387 167.733 9.464C166.923 8.58933 165.653 8.152 163.925 8.152H161.461C161.077 8.152 160.885 8.33333 160.885 8.696V18.36ZM182.447 25.752C182.447 26.6267 182.468 27.32 182.511 27.832C182.575 28.3227 182.692 28.7067 182.863 28.984C183.055 29.2613 183.332 29.4427 183.695 29.528C184.079 29.6133 184.591 29.6773 185.231 29.72V31H175.151V29.72C175.791 29.6773 176.303 29.6133 176.687 29.528C177.071 29.4427 177.359 29.272 177.551 29.016C177.743 28.76 177.86 28.3973 177.903 27.928C177.967 27.4373 177.999 26.7867 177.999 25.976V12.824C177.999 11.544 177.978 10.5413 177.935 9.816C177.914 9.06933 177.86 8.504 177.775 8.12C177.711 7.84267 177.636 7.62933 177.551 7.48C177.466 7.30933 177.327 7.18133 177.135 7.096C176.964 6.98933 176.719 6.92533 176.399 6.904C176.1 6.86133 175.716 6.84 175.247 6.84V5.656L182.383 4.44V16.248H182.511C183.172 15.3733 183.908 14.7333 184.719 14.328C185.551 13.9227 186.543 13.72 187.695 13.72C189.786 13.72 191.407 14.36 192.559 15.64C193.114 16.28 193.551 17.0587 193.871 17.976C194.191 18.872 194.351 19.8107 194.351 20.792V25.752C194.351 26.648 194.372 27.352 194.415 27.864C194.458 28.3547 194.564 28.7387 194.735 29.016C194.927 29.272 195.204 29.4427 195.567 29.528C195.93 29.6133 196.431 29.6773 197.071 29.72V31H187.055V29.72C187.695 29.6987 188.196 29.6453 188.559 29.56C188.943 29.4533 189.231 29.272 189.423 29.016C189.636 28.76 189.764 28.3973 189.807 27.928C189.871 27.4373 189.903 26.7867 189.903 25.976V22.04C189.903 19.7787 189.658 18.1787 189.167 17.24C188.676 16.3013 187.834 15.832 186.639 15.832C185.359 15.832 184.346 16.3013 183.599 17.24C183.236 17.7307 182.948 18.3387 182.735 19.064C182.543 19.7893 182.447 20.6 182.447 21.496V25.752ZM208.491 21.88C206.699 22.6907 205.344 23.448 204.427 24.152C203.531 24.8347 203.083 25.5493 203.083 26.296C203.083 26.9147 203.253 27.4053 203.595 27.768C203.936 28.1307 204.363 28.312 204.875 28.312C205.387 28.312 205.867 28.2267 206.315 28.056C206.763 27.864 207.147 27.6187 207.467 27.32C207.787 27.0213 208.032 26.6693 208.203 26.264C208.395 25.8373 208.491 25.3893 208.491 24.92V21.88ZM208.491 20.184V18.84C208.491 17.6027 208.267 16.7067 207.819 16.152C207.392 15.576 206.72 15.288 205.803 15.288C205.184 15.288 204.715 15.4587 204.395 15.8C204.075 16.12 203.776 16.664 203.499 17.432C203.307 17.9653 203.029 18.3813 202.667 18.68C202.325 18.9787 201.845 19.128 201.227 19.128C200.629 19.128 200.171 18.9467 199.851 18.584C199.531 18.2213 199.371 17.7093 199.371 17.048C199.371 16.024 199.925 15.2133 201.035 14.616C202.165 14.0187 203.861 13.72 206.123 13.72C208.512 13.72 210.219 14.1573 211.243 15.032C212.267 15.8853 212.779 17.3253 212.779 19.352V26.36C212.779 28.1733 213.141 29.08 213.867 29.08C214.272 29.08 214.645 28.9413 214.987 28.664L215.467 29.592C215.168 30.1253 214.699 30.552 214.059 30.872C213.44 31.1707 212.736 31.32 211.947 31.32C210.965 31.32 210.219 31.0213 209.707 30.424C209.195 29.8267 208.939 28.984 208.939 27.896H208.779C208.16 29.0053 207.36 29.848 206.379 30.424C205.397 31 204.277 31.288 203.019 31.288C201.675 31.288 200.597 30.9147 199.787 30.168C198.976 29.4 198.571 28.408 198.571 27.192C198.571 26.2533 198.987 25.3787 199.819 24.568C200.651 23.736 202.037 22.9253 203.979 22.136L208.491 20.184ZM224.114 26.04C224.114 26.872 224.146 27.5333 224.21 28.024C224.295 28.4933 224.455 28.856 224.69 29.112C224.924 29.368 225.266 29.5387 225.714 29.624C226.162 29.688 226.759 29.72 227.506 29.72V31H216.818V29.72C217.458 29.6773 217.97 29.6133 218.354 29.528C218.738 29.4427 219.026 29.272 219.218 29.016C219.41 28.76 219.527 28.3973 219.57 27.928C219.634 27.4373 219.666 26.7867 219.666 25.976V22.072C219.666 20.7493 219.634 19.6933 219.57 18.904C219.506 18.1147 219.367 17.5067 219.154 17.08C218.94 16.6533 218.631 16.376 218.226 16.248C217.842 16.0987 217.33 16.024 216.69 16.024V14.904L223.09 13.72L223.602 17.4H223.73C224.306 16.2693 225.063 15.3733 226.002 14.712C226.94 14.0507 227.932 13.72 228.978 13.72C229.788 13.72 230.45 13.9227 230.962 14.328C231.474 14.7333 231.73 15.2453 231.73 15.864C231.73 16.5467 231.527 17.1227 231.122 17.592C230.738 18.0613 230.204 18.296 229.522 18.296C229.202 18.296 228.914 18.232 228.658 18.104C228.402 17.976 228.167 17.8373 227.954 17.688C227.762 17.5173 227.559 17.368 227.346 17.24C227.154 17.0907 226.951 17.016 226.738 17.016C226.332 17.016 225.948 17.2827 225.586 17.816C225.223 18.3493 224.924 19.064 224.69 19.96C224.519 20.6 224.38 21.3253 224.274 22.136C224.167 22.9253 224.114 23.7147 224.114 24.504V26.04ZM240.051 25.72C240.051 26.616 240.073 27.32 240.115 27.832C240.158 28.344 240.275 28.7387 240.467 29.016C240.659 29.272 240.937 29.4427 241.299 29.528C241.662 29.6133 242.163 29.6773 242.803 29.72V31H232.691V29.72C233.331 29.6773 233.843 29.6133 234.227 29.528C234.611 29.4427 234.899 29.272 235.091 29.016C235.283 28.76 235.411 28.3973 235.475 27.928C235.539 27.4373 235.571 26.7867 235.571 25.976V22.008C235.571 20.792 235.55 19.7787 235.507 18.968C235.486 18.1573 235.433 17.6027 235.347 17.304C235.283 17.0267 235.198 16.8133 235.091 16.664C235.006 16.4933 234.857 16.3653 234.643 16.28C234.451 16.1733 234.195 16.1093 233.875 16.088C233.555 16.0453 233.139 16.024 232.627 16.024V14.936L238.803 13.72L239.187 16.504H239.379C240.275 15.5013 241.171 14.7867 242.067 14.36C242.985 13.9333 244.041 13.72 245.235 13.72C246.643 13.72 247.806 13.9653 248.723 14.456C249.641 14.9467 250.334 15.6507 250.803 16.568H250.931C251.699 15.672 252.617 14.9787 253.683 14.488C254.75 13.976 255.891 13.72 257.107 13.72C258.387 13.72 259.497 13.88 260.435 14.2C261.395 14.52 262.142 14.9787 262.675 15.576C263.102 16.0667 263.411 16.7067 263.603 17.496C263.817 18.2853 263.923 19.384 263.923 20.792V25.72C263.923 26.5947 263.945 27.288 263.987 27.8C264.051 28.312 264.179 28.7067 264.371 28.984C264.563 29.2613 264.841 29.4427 265.203 29.528C265.566 29.6133 266.067 29.6773 266.707 29.72V31H256.595V29.72C257.235 29.6987 257.737 29.6453 258.099 29.56C258.483 29.4533 258.771 29.272 258.963 29.016C259.177 28.7387 259.305 28.3653 259.347 27.896C259.411 27.4267 259.443 26.7867 259.443 25.976V21.784C259.443 20.6747 259.379 19.736 259.251 18.968C259.123 18.2 258.921 17.5813 258.643 17.112C258.366 16.6427 257.993 16.312 257.523 16.12C257.075 15.9067 256.521 15.8 255.859 15.8C255.113 15.8 254.494 15.9813 254.003 16.344C253.534 16.7067 253.139 17.176 252.819 17.752C252.265 18.7547 251.987 20.0027 251.987 21.496V25.72C251.987 26.5947 252.009 27.288 252.051 27.8C252.094 28.312 252.211 28.7067 252.403 28.984C252.595 29.2613 252.873 29.4427 253.235 29.528C253.619 29.6133 254.142 29.6773 254.803 29.72V31H244.659V29.72C245.299 29.6773 245.801 29.6133 246.163 29.528C246.547 29.4427 246.835 29.272 247.027 29.016C247.241 28.76 247.369 28.3973 247.411 27.928C247.475 27.4373 247.507 26.7867 247.507 25.976V21.784C247.507 20.6747 247.443 19.736 247.315 18.968C247.187 18.2 246.974 17.5813 246.675 17.112C246.398 16.6427 246.025 16.312 245.555 16.12C245.086 15.9067 244.499 15.8 243.795 15.8C243.091 15.8 242.505 15.9707 242.035 16.312C241.587 16.6533 241.214 17.112 240.915 17.688C240.638 18.2 240.425 18.7867 240.275 19.448C240.126 20.1093 240.051 20.792 240.051 21.496V25.72ZM278.209 21.88C276.417 22.6907 275.063 23.448 274.145 24.152C273.249 24.8347 272.801 25.5493 272.801 26.296C272.801 26.9147 272.972 27.4053 273.313 27.768C273.655 28.1307 274.081 28.312 274.593 28.312C275.105 28.312 275.585 28.2267 276.033 28.056C276.481 27.864 276.865 27.6187 277.185 27.32C277.505 27.0213 277.751 26.6693 277.921 26.264C278.113 25.8373 278.209 25.3893 278.209 24.92V21.88ZM278.209 20.184V18.84C278.209 17.6027 277.985 16.7067 277.537 16.152C277.111 15.576 276.439 15.288 275.521 15.288C274.903 15.288 274.433 15.4587 274.113 15.8C273.793 16.12 273.495 16.664 273.217 17.432C273.025 17.9653 272.748 18.3813 272.385 18.68C272.044 18.9787 271.564 19.128 270.945 19.128C270.348 19.128 269.889 18.9467 269.569 18.584C269.249 18.2213 269.089 17.7093 269.089 17.048C269.089 16.024 269.644 15.2133 270.753 14.616C271.884 14.0187 273.58 13.72 275.841 13.72C278.231 13.72 279.937 14.1573 280.961 15.032C281.985 15.8853 282.497 17.3253 282.497 19.352V26.36C282.497 28.1733 282.86 29.08 283.585 29.08C283.991 29.08 284.364 28.9413 284.705 28.664L285.185 29.592C284.887 30.1253 284.417 30.552 283.777 30.872C283.159 31.1707 282.455 31.32 281.665 31.32C280.684 31.32 279.937 31.0213 279.425 30.424C278.913 29.8267 278.657 28.984 278.657 27.896H278.497C277.879 29.0053 277.079 29.848 276.097 30.424C275.116 31 273.996 31.288 272.737 31.288C271.393 31.288 270.316 30.9147 269.505 30.168C268.695 29.4 268.289 28.408 268.289 27.192C268.289 26.2533 268.705 25.3787 269.537 24.568C270.369 23.736 271.756 22.9253 273.697 22.136L278.209 20.184ZM302.472 28.344C301.662 29.24 300.648 29.9333 299.432 30.424C298.238 30.9147 296.936 31.16 295.528 31.16C294.227 31.16 293.043 30.9573 291.976 30.552C290.91 30.1253 289.992 29.5387 289.224 28.792C288.456 28.0453 287.859 27.1493 287.432 26.104C287.027 25.0373 286.824 23.864 286.824 22.584C286.824 21.2613 287.048 20.056 287.496 18.968C287.944 17.88 288.574 16.952 289.384 16.184C290.195 15.3947 291.166 14.7867 292.296 14.36C293.427 13.9333 294.675 13.72 296.04 13.72C297 13.72 297.886 13.816 298.696 14.008C299.528 14.2 300.232 14.4667 300.808 14.808C301.406 15.1493 301.875 15.5547 302.216 16.024C302.558 16.472 302.728 16.9627 302.728 17.496C302.728 18.1147 302.547 18.6053 302.184 18.968C301.843 19.3307 301.374 19.512 300.776 19.512C300.286 19.512 299.848 19.384 299.464 19.128C299.102 18.872 298.739 18.456 298.376 17.88C298.056 17.368 297.779 16.9627 297.544 16.664C297.331 16.3653 297.128 16.1413 296.936 15.992C296.744 15.8213 296.552 15.7147 296.36 15.672C296.168 15.608 295.934 15.576 295.656 15.576C294.419 15.576 293.459 16.152 292.776 17.304C292.094 18.456 291.752 20.0667 291.752 22.136C291.752 24.3547 292.158 26.0613 292.968 27.256C293.8 28.4507 294.984 29.048 296.52 29.048C297.395 29.048 298.27 28.888 299.144 28.568C300.019 28.2267 300.851 27.7467 301.64 27.128L302.472 28.344ZM312.823 36.024C312.588 36.4933 312.29 36.9307 311.927 37.336C311.586 37.7413 311.191 38.0827 310.743 38.36C310.316 38.6587 309.868 38.8933 309.399 39.064C308.93 39.2347 308.46 39.32 307.991 39.32C307.287 39.32 306.722 39.1493 306.295 38.808C305.868 38.4667 305.655 38.008 305.655 37.432C305.655 36.8987 305.836 36.4827 306.199 36.184C306.583 35.8853 307.191 35.704 308.023 35.64C309.922 35.4907 311.148 34.8933 311.703 33.848L312.567 32.184L306.903 18.168C306.647 17.5493 306.423 17.0587 306.231 16.696C306.06 16.3333 305.868 16.056 305.655 15.864C305.442 15.6507 305.196 15.512 304.919 15.448C304.642 15.384 304.3 15.3413 303.895 15.32V14.04H313.591V15.32C312.759 15.32 312.172 15.4053 311.831 15.576C311.511 15.7253 311.351 16.0133 311.351 16.44C311.351 16.6107 311.372 16.8133 311.415 17.048C311.479 17.2613 311.554 17.4853 311.639 17.72L314.903 27.064H315.031L317.783 20.824C318.06 20.1627 318.295 19.6187 318.487 19.192C318.679 18.744 318.818 18.3707 318.903 18.072C319.01 17.752 319.084 17.496 319.127 17.304C319.17 17.112 319.191 16.92 319.191 16.728C319.191 16.1733 319.031 15.8 318.711 15.608C318.412 15.416 317.794 15.32 316.855 15.32V14.04H324.567V15.32C324.14 15.32 323.778 15.384 323.479 15.512C323.18 15.6187 322.871 15.8533 322.551 16.216C322.252 16.5787 321.911 17.1227 321.527 17.848C321.164 18.552 320.706 19.4907 320.151 20.664L312.823 36.024Z" fill="#F06536"/>
<path d="M77.9007 50.284L79.7907 44.88C80.0147 44.2547 80.1267 43.788 80.1267 43.48C80.1267 43.1907 80.024 43.004 79.8187 42.92C79.6227 42.8267 79.3147 42.78 78.8947 42.78V42.22H82.8707V42.78C82.516 42.78 82.194 42.8687 81.9047 43.046C81.6247 43.214 81.41 43.5033 81.2607 43.914L77.8867 53.14H76.6407L74.2047 45.748L71.4327 53.14H70.2707L67.3027 44.964C67.1254 44.488 66.962 44.1053 66.8127 43.816C66.6634 43.5267 66.5047 43.3073 66.3367 43.158C66.1687 43.0087 65.9867 42.9107 65.7907 42.864C65.5947 42.8173 65.3614 42.794 65.0907 42.794V42.22H70.3827V42.794C69.9067 42.794 69.58 42.8407 69.4027 42.934C69.2254 43.018 69.1367 43.1627 69.1367 43.368C69.1367 43.4427 69.1414 43.5173 69.1507 43.592C69.16 43.6573 69.1787 43.7367 69.2067 43.83C69.2347 43.914 69.2674 44.0213 69.3047 44.152C69.3514 44.2827 69.412 44.446 69.4867 44.642L71.4467 50.284L73.7147 44.096C73.6214 43.844 73.528 43.6387 73.4347 43.48C73.3414 43.3213 73.2294 43.1953 73.0987 43.102C72.9774 43.0087 72.8374 42.9433 72.6787 42.906C72.52 42.8593 72.3287 42.822 72.1047 42.794V42.22H77.0467V42.794C76.6547 42.794 76.3654 42.8453 76.1787 42.948C75.992 43.0413 75.8987 43.228 75.8987 43.508C75.8987 43.648 75.9174 43.8113 75.9547 43.998C76.0014 44.1847 76.062 44.3993 76.1367 44.642L77.9007 50.284ZM88.7977 42.08C89.6377 42.08 90.4217 42.2247 91.1497 42.514C91.8777 42.8033 92.5077 43.2 93.0397 43.704C93.5811 44.208 94.0057 44.8007 94.3137 45.482C94.6217 46.1633 94.7757 46.9007 94.7757 47.694C94.7757 48.45 94.6171 49.1593 94.2997 49.822C93.9917 50.4847 93.5671 51.0633 93.0257 51.558C92.4937 52.0433 91.8637 52.4307 91.1357 52.72C90.4077 53 89.6284 53.14 88.7977 53.14C87.9671 53.14 87.1877 53 86.4597 52.72C85.7317 52.4307 85.0971 52.0433 84.5557 51.558C84.0144 51.0633 83.5897 50.4847 83.2817 49.822C82.9737 49.1593 82.8197 48.45 82.8197 47.694C82.8197 46.9007 82.9737 46.1633 83.2817 45.482C83.5897 44.8007 84.0097 44.208 84.5417 43.704C85.0831 43.2 85.7177 42.8033 86.4457 42.514C87.1737 42.2247 87.9577 42.08 88.7977 42.08ZM88.7977 52.23C89.3391 52.23 89.8291 52.1273 90.2677 51.922C90.7064 51.7073 91.0797 51.4087 91.3877 51.026C91.6957 50.634 91.9291 50.1627 92.0877 49.612C92.2557 49.052 92.3397 48.4267 92.3397 47.736C92.3397 47.008 92.2557 46.3547 92.0877 45.776C91.9291 45.188 91.6957 44.6887 91.3877 44.278C91.0797 43.858 90.7064 43.5407 90.2677 43.326C89.8291 43.102 89.3391 42.99 88.7977 42.99C88.2471 42.99 87.7524 43.102 87.3137 43.326C86.8844 43.5407 86.5157 43.858 86.2077 44.278C85.8997 44.6887 85.6617 45.188 85.4937 45.776C85.3351 46.3547 85.2557 47.008 85.2557 47.736C85.2557 48.4267 85.3351 49.052 85.4937 49.612C85.6617 50.1627 85.8997 50.634 86.2077 51.026C86.5157 51.4087 86.8844 51.7073 87.3137 51.922C87.7524 52.1273 88.2471 52.23 88.7977 52.23ZM104.963 44.922C104.963 45.6967 104.739 46.3453 104.291 46.868C103.843 47.3907 103.129 47.7407 102.149 47.918L105.397 51.642C105.621 51.9033 105.887 52.104 106.195 52.244C106.503 52.3747 106.815 52.44 107.133 52.44V53H103.815L100.343 48.744C100.109 48.464 99.904 48.2773 99.7267 48.184C99.5587 48.0813 99.4 48.03 99.2507 48.03V50.774C99.2507 51.1193 99.274 51.404 99.3207 51.628C99.3674 51.8427 99.4607 52.0107 99.6007 52.132C99.7407 52.2533 99.9414 52.3373 100.203 52.384C100.473 52.4213 100.833 52.44 101.281 52.44V53H95.7227V52.44C96.0307 52.44 96.278 52.4213 96.4647 52.384C96.6607 52.3373 96.81 52.258 96.9127 52.146C97.0247 52.0247 97.0994 51.8613 97.1367 51.656C97.174 51.4413 97.1927 51.1707 97.1927 50.844V44.376C97.1927 44.0493 97.1787 43.788 97.1507 43.592C97.1227 43.3867 97.062 43.228 96.9687 43.116C96.8754 42.9947 96.74 42.9153 96.5627 42.878C96.3947 42.8313 96.166 42.7987 95.8767 42.78V42.22H100.721C102.074 42.22 103.119 42.458 103.857 42.934C104.594 43.41 104.963 44.0727 104.963 44.922ZM99.2507 47.19H100.161C101.038 47.19 101.691 47.022 102.121 46.686C102.559 46.3407 102.779 45.776 102.779 44.992C102.779 44.3947 102.597 43.914 102.233 43.55C101.869 43.186 101.365 43.004 100.721 43.004H99.5027C99.3347 43.004 99.2507 43.0833 99.2507 43.242V47.19ZM116.785 53H107.139V52.44C107.447 52.4307 107.699 52.4027 107.895 52.356C108.091 52.3093 108.24 52.23 108.343 52.118C108.445 52.006 108.515 51.8473 108.553 51.642C108.59 51.4367 108.609 51.1707 108.609 50.844V44.376C108.609 44.0493 108.59 43.788 108.553 43.592C108.525 43.3867 108.464 43.228 108.371 43.116C108.277 42.9947 108.142 42.9153 107.965 42.878C107.797 42.8313 107.573 42.7987 107.293 42.78V42.22H112.123V42.78C111.805 42.7893 111.549 42.8173 111.353 42.864C111.166 42.9107 111.021 42.9947 110.919 43.116C110.816 43.2373 110.746 43.4053 110.709 43.62C110.681 43.8347 110.667 44.1193 110.667 44.474V50.34C110.667 50.732 110.704 51.054 110.779 51.306C110.863 51.5487 111.003 51.74 111.199 51.88C111.395 52.0107 111.656 52.104 111.983 52.16C112.309 52.2067 112.715 52.23 113.201 52.23C113.742 52.23 114.195 52.1973 114.559 52.132C114.923 52.0667 115.226 51.9453 115.469 51.768C115.721 51.5813 115.921 51.334 116.071 51.026C116.22 50.718 116.346 50.3167 116.449 49.822H117.009L116.785 53ZM117.707 53V52.44C118.015 52.4307 118.262 52.4073 118.449 52.37C118.645 52.3233 118.794 52.244 118.897 52.132C119.009 52.0107 119.084 51.852 119.121 51.656C119.158 51.4507 119.177 51.18 119.177 50.844V44.376C119.177 44.0493 119.163 43.788 119.135 43.592C119.107 43.3867 119.046 43.228 118.953 43.116C118.86 42.9947 118.729 42.9153 118.561 42.878C118.402 42.8313 118.192 42.7987 117.931 42.78V42.22H123.251C124.147 42.22 124.973 42.36 125.729 42.64C126.485 42.92 127.138 43.3073 127.689 43.802C128.24 44.2967 128.669 44.8847 128.977 45.566C129.285 46.2473 129.439 46.9893 129.439 47.792C129.439 48.5573 129.294 49.262 129.005 49.906C128.716 50.5407 128.31 51.0867 127.787 51.544C127.274 52.0013 126.653 52.3607 125.925 52.622C125.206 52.874 124.413 53 123.545 53H117.707ZM121.473 43.074C121.314 43.074 121.235 43.1533 121.235 43.312V50.55C121.235 51.0913 121.403 51.4927 121.739 51.754C122.075 52.0153 122.593 52.146 123.293 52.146C124.516 52.146 125.454 51.7773 126.107 51.04C126.77 50.3027 127.101 49.2293 127.101 47.82C127.101 47.0733 127.012 46.406 126.835 45.818C126.658 45.23 126.401 44.7353 126.065 44.334C125.729 43.9233 125.318 43.6107 124.833 43.396C124.357 43.1813 123.82 43.074 123.223 43.074H121.473ZM137.819 50.746C137.819 51.1007 137.842 51.39 137.889 51.614C137.936 51.8287 138.029 51.9967 138.169 52.118C138.318 52.23 138.524 52.3093 138.785 52.356C139.056 52.4027 139.415 52.4307 139.863 52.44V53H134.291V52.44C134.599 52.4307 134.851 52.4027 135.047 52.356C135.243 52.3093 135.392 52.23 135.495 52.118C135.598 52.006 135.668 51.8473 135.705 51.642C135.742 51.4367 135.761 51.1707 135.761 50.844V44.376C135.761 44.0493 135.742 43.788 135.705 43.592C135.677 43.3867 135.616 43.228 135.523 43.116C135.43 42.9947 135.294 42.9153 135.117 42.878C134.949 42.8313 134.725 42.7987 134.445 42.78V42.22H143.013L143.181 45.174H142.593C142.537 44.7727 142.453 44.4367 142.341 44.166C142.238 43.886 142.089 43.662 141.893 43.494C141.697 43.3167 141.445 43.1907 141.137 43.116C140.829 43.0413 140.451 43.004 140.003 43.004H138.071C137.903 43.004 137.819 43.0833 137.819 43.242V47.288C138.388 47.288 138.85 47.2647 139.205 47.218C139.569 47.1713 139.858 47.0827 140.073 46.952C140.288 46.812 140.442 46.6253 140.535 46.392C140.628 46.1587 140.694 45.8507 140.731 45.468H141.249V49.85H140.731C140.675 49.458 140.596 49.1453 140.493 48.912C140.39 48.6693 140.232 48.4873 140.017 48.366C139.812 48.2353 139.532 48.1467 139.177 48.1C138.822 48.0533 138.37 48.03 137.819 48.03V50.746ZM149.524 49.738H145.562C145.123 50.7273 144.904 51.4133 144.904 51.796C144.904 52.076 145.007 52.2533 145.212 52.328C145.427 52.4027 145.744 52.44 146.164 52.44V53H142.328V52.44C142.552 52.412 142.743 52.3747 142.902 52.328C143.07 52.2813 143.215 52.216 143.336 52.132C143.467 52.048 143.579 51.9407 143.672 51.81C143.765 51.67 143.854 51.502 143.938 51.306L147.62 42.08H148.656L152.002 50.256C152.198 50.732 152.361 51.1053 152.492 51.376C152.632 51.6467 152.777 51.8567 152.926 52.006C153.085 52.146 153.262 52.244 153.458 52.3C153.663 52.356 153.925 52.398 154.242 52.426V53H148.95V52.426C149.398 52.4073 149.72 52.3607 149.916 52.286C150.112 52.2113 150.21 52.062 150.21 51.838C150.21 51.7073 150.177 51.5393 150.112 51.334C150.047 51.1287 149.958 50.8767 149.846 50.578L149.524 49.738ZM145.884 48.898H149.216L147.606 44.656H147.55L145.884 48.898ZM161.964 50.382L165.198 42.22H169.286V42.78C168.978 42.78 168.726 42.8127 168.53 42.878C168.344 42.934 168.199 43.0413 168.096 43.2C167.994 43.3587 167.924 43.578 167.886 43.858C167.858 44.1287 167.844 44.474 167.844 44.894V50.326C167.844 50.7927 167.863 51.1613 167.9 51.432C167.938 51.7027 168.012 51.9127 168.124 52.062C168.236 52.2113 168.395 52.3093 168.6 52.356C168.815 52.4027 169.095 52.4307 169.44 52.44V53H164.176V52.44C164.522 52.4307 164.797 52.4027 165.002 52.356C165.217 52.3 165.38 52.202 165.492 52.062C165.614 51.922 165.693 51.726 165.73 51.474C165.768 51.2127 165.786 50.8627 165.786 50.424V43.872H165.716L161.95 53.14H160.914L157.022 43.872H156.966V50.326C156.966 50.7927 156.985 51.1613 157.022 51.432C157.06 51.7027 157.134 51.9127 157.246 52.062C157.358 52.2113 157.517 52.3093 157.722 52.356C157.937 52.4027 158.217 52.4307 158.562 52.44V53H154.25V52.44C154.596 52.4307 154.876 52.4027 155.09 52.356C155.305 52.3 155.468 52.202 155.58 52.062C155.702 51.922 155.781 51.726 155.818 51.474C155.856 51.2127 155.874 50.8627 155.874 50.424V44.796C155.874 44.404 155.856 44.0773 155.818 43.816C155.781 43.5547 155.711 43.3493 155.608 43.2C155.506 43.0413 155.356 42.934 155.16 42.878C154.974 42.8127 154.722 42.78 154.404 42.78V42.22H158.646L161.908 50.382H161.964ZM176.298 42.08C177.138 42.08 177.922 42.2247 178.65 42.514C179.378 42.8033 180.008 43.2 180.54 43.704C181.081 44.208 181.506 44.8007 181.814 45.482C182.122 46.1633 182.276 46.9007 182.276 47.694C182.276 48.45 182.117 49.1593 181.8 49.822C181.492 50.4847 181.067 51.0633 180.526 51.558C179.994 52.0433 179.364 52.4307 178.636 52.72C177.908 53 177.128 53.14 176.298 53.14C175.467 53.14 174.688 53 173.96 52.72C173.232 52.4307 172.597 52.0433 172.056 51.558C171.514 51.0633 171.09 50.4847 170.782 49.822C170.474 49.1593 170.32 48.45 170.32 47.694C170.32 46.9007 170.474 46.1633 170.782 45.482C171.09 44.8007 171.51 44.208 172.042 43.704C172.583 43.2 173.218 42.8033 173.946 42.514C174.674 42.2247 175.458 42.08 176.298 42.08ZM176.298 52.23C176.839 52.23 177.329 52.1273 177.768 51.922C178.206 51.7073 178.58 51.4087 178.888 51.026C179.196 50.634 179.429 50.1627 179.588 49.612C179.756 49.052 179.84 48.4267 179.84 47.736C179.84 47.008 179.756 46.3547 179.588 45.776C179.429 45.188 179.196 44.6887 178.888 44.278C178.58 43.858 178.206 43.5407 177.768 43.326C177.329 43.102 176.839 42.99 176.298 42.99C175.747 42.99 175.252 43.102 174.814 43.326C174.384 43.5407 174.016 43.858 173.708 44.278C173.4 44.6887 173.162 45.188 172.994 45.776C172.835 46.3547 172.756 47.008 172.756 47.736C172.756 48.4267 172.835 49.052 172.994 49.612C173.162 50.1627 173.4 50.634 173.708 51.026C174.016 51.4087 174.384 51.7073 174.814 51.922C175.252 52.1273 175.747 52.23 176.298 52.23ZM193.385 48.66C193.385 49.4533 193.297 50.1347 193.119 50.704C192.951 51.264 192.685 51.726 192.321 52.09C191.957 52.454 191.486 52.72 190.907 52.888C190.338 53.056 189.652 53.14 188.849 53.14C187.347 53.14 186.245 52.8273 185.545 52.202C184.855 51.5673 184.509 50.5593 184.509 49.178V45.342C184.509 44.978 184.505 44.6747 184.495 44.432C184.486 44.18 184.472 43.97 184.453 43.802C184.435 43.634 184.407 43.4987 184.369 43.396C184.341 43.284 184.304 43.1907 184.257 43.116C184.173 42.9853 184.052 42.8967 183.893 42.85C183.735 42.8033 183.492 42.78 183.165 42.78V42.22H188.191V42.78C187.799 42.78 187.51 42.8033 187.323 42.85C187.137 42.8873 186.992 42.9667 186.889 43.088C186.824 43.1627 186.768 43.256 186.721 43.368C186.684 43.4707 186.651 43.6107 186.623 43.788C186.605 43.956 186.591 44.166 186.581 44.418C186.572 44.67 186.567 44.978 186.567 45.342V49.01C186.567 50.074 186.791 50.8627 187.239 51.376C187.697 51.88 188.397 52.132 189.339 52.132C191.262 52.132 192.223 51.0633 192.223 48.926V45.692C192.223 45.3 192.214 44.964 192.195 44.684C192.186 44.404 192.163 44.166 192.125 43.97C192.097 43.774 192.055 43.6107 191.999 43.48C191.953 43.3493 191.892 43.242 191.817 43.158C191.687 43.0273 191.519 42.934 191.313 42.878C191.108 42.8127 190.823 42.78 190.459 42.78V42.22H194.995V42.78C194.65 42.78 194.384 42.808 194.197 42.864C194.011 42.9107 193.866 42.9993 193.763 43.13C193.689 43.214 193.628 43.326 193.581 43.466C193.535 43.5967 193.497 43.7647 193.469 43.97C193.441 44.166 193.418 44.404 193.399 44.684C193.39 44.964 193.385 45.3 193.385 45.692V48.66ZM195.862 49.43H196.408C196.538 50.3167 196.893 51.0167 197.472 51.53C198.05 52.034 198.764 52.286 199.614 52.286C199.959 52.286 200.276 52.244 200.566 52.16C200.855 52.076 201.102 51.9593 201.308 51.81C201.513 51.6513 201.672 51.4693 201.784 51.264C201.896 51.0493 201.952 50.8113 201.952 50.55C201.952 50.326 201.914 50.1347 201.84 49.976C201.774 49.808 201.644 49.6493 201.448 49.5C201.252 49.3413 200.981 49.1827 200.636 49.024C200.3 48.8653 199.861 48.6833 199.32 48.478C198.228 48.058 197.42 47.5727 196.898 47.022C196.375 46.462 196.114 45.804 196.114 45.048C196.114 44.6093 196.198 44.208 196.366 43.844C196.534 43.48 196.767 43.1673 197.066 42.906C197.374 42.6447 197.738 42.444 198.158 42.304C198.587 42.1547 199.058 42.08 199.572 42.08C200.048 42.08 200.496 42.1547 200.916 42.304C201.336 42.4533 201.751 42.6773 202.162 42.976L202.414 42.276H202.75L202.904 45.3H202.358C202.134 44.5347 201.784 43.9513 201.308 43.55C200.832 43.1393 200.281 42.934 199.656 42.934C199.077 42.934 198.606 43.0787 198.242 43.368C197.887 43.648 197.71 44.012 197.71 44.46C197.71 44.656 197.742 44.8333 197.808 44.992C197.873 45.1413 197.994 45.286 198.172 45.426C198.349 45.566 198.592 45.7107 198.9 45.86C199.208 46 199.604 46.1587 200.09 46.336C200.743 46.588 201.298 46.8447 201.756 47.106C202.222 47.358 202.6 47.6333 202.89 47.932C203.188 48.2213 203.408 48.5293 203.548 48.856C203.688 49.1827 203.758 49.542 203.758 49.934C203.758 50.41 203.655 50.844 203.45 51.236C203.244 51.628 202.955 51.964 202.582 52.244C202.218 52.524 201.779 52.7433 201.266 52.902C200.762 53.0607 200.202 53.14 199.586 53.14C199.026 53.14 198.522 53.0653 198.074 52.916C197.626 52.7573 197.164 52.5053 196.688 52.16L196.408 53H196.072L195.862 49.43ZM217.908 45.216C217.908 46.224 217.516 46.994 216.732 47.526C215.948 48.0487 214.809 48.31 213.316 48.31H212.126V50.774C212.126 51.1287 212.149 51.418 212.196 51.642C212.242 51.8567 212.34 52.0247 212.49 52.146C212.639 52.2673 212.844 52.3467 213.106 52.384C213.367 52.4213 213.717 52.44 214.156 52.44V53H208.598V52.44C208.906 52.4307 209.158 52.4027 209.354 52.356C209.55 52.3093 209.699 52.23 209.802 52.118C209.904 52.006 209.974 51.8473 210.012 51.642C210.049 51.4367 210.068 51.1707 210.068 50.844V44.376C210.068 44.0493 210.049 43.788 210.012 43.592C209.984 43.3867 209.923 43.228 209.83 43.116C209.736 42.9947 209.601 42.9153 209.424 42.878C209.256 42.8313 209.032 42.7987 208.752 42.78V42.22H213.596C215.014 42.22 216.088 42.472 216.816 42.976C217.544 43.48 217.908 44.2267 217.908 45.216ZM212.126 47.47H213.036C213.941 47.47 214.604 47.288 215.024 46.924C215.444 46.56 215.654 45.986 215.654 45.202C215.654 44.502 215.476 43.9607 215.122 43.578C214.767 43.1953 214.212 43.004 213.456 43.004H212.378C212.21 43.004 212.126 43.0833 212.126 43.242V47.47ZM229.413 50.746C229.413 51.1007 229.427 51.39 229.455 51.614C229.492 51.8287 229.562 51.9967 229.665 52.118C229.777 52.23 229.926 52.3093 230.113 52.356C230.309 52.4027 230.566 52.4307 230.883 52.44V53H225.745V52.44C226.09 52.4307 226.366 52.4027 226.571 52.356C226.786 52.3093 226.949 52.23 227.061 52.118C227.182 52.006 227.262 51.8473 227.299 51.642C227.336 51.4367 227.355 51.1707 227.355 50.844V47.918H222.161V50.746C222.161 51.1007 222.18 51.39 222.217 51.614C222.254 51.8287 222.329 51.9967 222.441 52.118C222.553 52.23 222.712 52.3093 222.917 52.356C223.132 52.4027 223.412 52.4307 223.757 52.44V53H218.633V52.44C218.95 52.4307 219.202 52.4027 219.389 52.356C219.585 52.3093 219.734 52.23 219.837 52.118C219.94 52.006 220.01 51.8473 220.047 51.642C220.084 51.4367 220.103 51.1707 220.103 50.844V44.376C220.103 44.0493 220.084 43.788 220.047 43.592C220.019 43.3867 219.958 43.228 219.865 43.116C219.772 42.9947 219.636 42.9153 219.459 42.878C219.291 42.8313 219.067 42.7987 218.787 42.78V42.22H223.617V42.78C223.3 42.7893 223.043 42.8173 222.847 42.864C222.66 42.9107 222.516 42.9947 222.413 43.116C222.31 43.2373 222.24 43.4053 222.203 43.62C222.175 43.8347 222.161 44.1193 222.161 44.474V47.05H227.355V44.376C227.355 44.0493 227.336 43.788 227.299 43.592C227.262 43.3867 227.192 43.228 227.089 43.116C226.986 42.9947 226.837 42.9153 226.641 42.878C226.454 42.8313 226.202 42.7987 225.885 42.78V42.22H230.729V42.78C230.449 42.7893 230.22 42.8173 230.043 42.864C229.875 42.9107 229.744 42.9947 229.651 43.116C229.558 43.2373 229.492 43.4053 229.455 43.62C229.427 43.8347 229.413 44.1193 229.413 44.474V50.746ZM238.391 49.738H234.429C233.991 50.7273 233.771 51.4133 233.771 51.796C233.771 52.076 233.874 52.2533 234.079 52.328C234.294 52.4027 234.611 52.44 235.031 52.44V53H231.195V52.44C231.419 52.412 231.611 52.3747 231.769 52.328C231.937 52.2813 232.082 52.216 232.203 52.132C232.334 52.048 232.446 51.9407 232.539 51.81C232.633 51.67 232.721 51.502 232.805 51.306L236.487 42.08H237.523L240.869 50.256C241.065 50.732 241.229 51.1053 241.359 51.376C241.499 51.6467 241.644 51.8567 241.793 52.006C241.952 52.146 242.129 52.244 242.325 52.3C242.531 52.356 242.792 52.398 243.109 52.426V53H237.817V52.426C238.265 52.4073 238.587 52.3607 238.783 52.286C238.979 52.2113 239.077 52.062 239.077 51.838C239.077 51.7073 239.045 51.5393 238.979 51.334C238.914 51.1287 238.825 50.8767 238.713 50.578L238.391 49.738ZM234.751 48.898H238.083L236.473 44.656H236.417L234.751 48.898ZM252.428 44.922C252.428 45.6967 252.204 46.3453 251.756 46.868C251.308 47.3907 250.594 47.7407 249.614 47.918L252.862 51.642C253.086 51.9033 253.352 52.104 253.66 52.244C253.968 52.3747 254.28 52.44 254.598 52.44V53H251.28L247.808 48.744C247.574 48.464 247.369 48.2773 247.192 48.184C247.024 48.0813 246.865 48.03 246.716 48.03V50.774C246.716 51.1193 246.739 51.404 246.786 51.628C246.832 51.8427 246.926 52.0107 247.066 52.132C247.206 52.2533 247.406 52.3373 247.668 52.384C247.938 52.4213 248.298 52.44 248.746 52.44V53H243.188V52.44C243.496 52.44 243.743 52.4213 243.93 52.384C244.126 52.3373 244.275 52.258 244.378 52.146C244.49 52.0247 244.564 51.8613 244.602 51.656C244.639 51.4413 244.658 51.1707 244.658 50.844V44.376C244.658 44.0493 244.644 43.788 244.616 43.592C244.588 43.3867 244.527 43.228 244.434 43.116C244.34 42.9947 244.205 42.9153 244.028 42.878C243.86 42.8313 243.631 42.7987 243.342 42.78V42.22H248.186C249.539 42.22 250.584 42.458 251.322 42.934C252.059 43.41 252.428 44.0727 252.428 44.922ZM246.716 47.19H247.626C248.503 47.19 249.156 47.022 249.586 46.686C250.024 46.3407 250.244 45.776 250.244 44.992C250.244 44.3947 250.062 43.914 249.698 43.55C249.334 43.186 248.83 43.004 248.186 43.004H246.968C246.8 43.004 246.716 43.0833 246.716 43.242V47.19ZM262.248 50.382L265.482 42.22H269.57V42.78C269.262 42.78 269.01 42.8127 268.814 42.878C268.627 42.934 268.482 43.0413 268.38 43.2C268.277 43.3587 268.207 43.578 268.17 43.858C268.142 44.1287 268.128 44.474 268.128 44.894V50.326C268.128 50.7927 268.146 51.1613 268.184 51.432C268.221 51.7027 268.296 51.9127 268.408 52.062C268.52 52.2113 268.678 52.3093 268.884 52.356C269.098 52.4027 269.378 52.4307 269.724 52.44V53H264.46V52.44C264.805 52.4307 265.08 52.4027 265.286 52.356C265.5 52.3 265.664 52.202 265.776 52.062C265.897 51.922 265.976 51.726 266.014 51.474C266.051 51.2127 266.07 50.8627 266.07 50.424V43.872H266L262.234 53.14H261.198L257.306 43.872H257.25V50.326C257.25 50.7927 257.268 51.1613 257.306 51.432C257.343 51.7027 257.418 51.9127 257.53 52.062C257.642 52.2113 257.8 52.3093 258.006 52.356C258.22 52.4027 258.5 52.4307 258.846 52.44V53H254.534V52.44C254.879 52.4307 255.159 52.4027 255.374 52.356C255.588 52.3 255.752 52.202 255.864 52.062C255.985 51.922 256.064 51.726 256.102 51.474C256.139 51.2127 256.158 50.8627 256.158 50.424V44.796C256.158 44.404 256.139 44.0773 256.102 43.816C256.064 43.5547 255.994 43.3493 255.892 43.2C255.789 43.0413 255.64 42.934 255.444 42.878C255.257 42.8127 255.005 42.78 254.688 42.78V42.22H258.93L262.192 50.382H262.248ZM277.151 49.738H273.189C272.75 50.7273 272.531 51.4133 272.531 51.796C272.531 52.076 272.634 52.2533 272.839 52.328C273.054 52.4027 273.371 52.44 273.791 52.44V53H269.955V52.44C270.179 52.412 270.37 52.3747 270.529 52.328C270.697 52.2813 270.842 52.216 270.963 52.132C271.094 52.048 271.206 51.9407 271.299 51.81C271.392 51.67 271.481 51.502 271.565 51.306L275.247 42.08H276.283L279.629 50.256C279.825 50.732 279.988 51.1053 280.119 51.376C280.259 51.6467 280.404 51.8567 280.553 52.006C280.712 52.146 280.889 52.244 281.085 52.3C281.29 52.356 281.552 52.398 281.869 52.426V53H276.577V52.426C277.025 52.4073 277.347 52.3607 277.543 52.286C277.739 52.2113 277.837 52.062 277.837 51.838C277.837 51.7073 277.804 51.5393 277.739 51.334C277.674 51.1287 277.585 50.8767 277.473 50.578L277.151 49.738ZM273.511 48.898H276.843L275.233 44.656H275.177L273.511 48.898ZM291.027 42.22H291.713L291.433 45.762H290.873C290.677 44.9033 290.295 44.2267 289.725 43.732C289.165 43.2373 288.484 42.99 287.681 42.99C287.131 42.99 286.641 43.102 286.211 43.326C285.782 43.5407 285.418 43.8533 285.119 44.264C284.83 44.6653 284.606 45.16 284.447 45.748C284.298 46.3267 284.223 46.98 284.223 47.708C284.223 49.1547 284.517 50.27 285.105 51.054C285.703 51.8287 286.58 52.216 287.737 52.216C288.671 52.216 289.441 51.964 290.047 51.46C290.663 50.956 291.102 50.2047 291.363 49.206H291.979V53H291.321L291.125 51.894C290.099 52.7247 288.853 53.14 287.387 53.14C286.538 53.14 285.768 53.014 285.077 52.762C284.387 52.51 283.799 52.1553 283.313 51.698C282.828 51.2313 282.45 50.6667 282.179 50.004C281.918 49.3413 281.787 48.604 281.787 47.792C281.787 46.9427 281.927 46.168 282.207 45.468C282.487 44.768 282.879 44.166 283.383 43.662C283.897 43.158 284.503 42.7707 285.203 42.5C285.913 42.22 286.697 42.08 287.555 42.08C288.125 42.08 288.657 42.1593 289.151 42.318C289.646 42.4767 290.183 42.7333 290.761 43.088L291.027 42.22ZM294.069 43.984C293.929 43.7413 293.798 43.5407 293.677 43.382C293.565 43.2233 293.448 43.102 293.327 43.018C293.205 42.9247 293.075 42.864 292.935 42.836C292.795 42.7987 292.636 42.78 292.459 42.78V42.22H297.163V42.78C296.771 42.78 296.495 42.8173 296.337 42.892C296.178 42.9667 296.099 43.0787 296.099 43.228C296.099 43.3213 296.127 43.4333 296.183 43.564C296.239 43.6947 296.327 43.872 296.449 44.096L298.451 47.918H298.507L300.271 44.978C300.579 44.4553 300.793 44.068 300.915 43.816C301.036 43.5547 301.097 43.3493 301.097 43.2C301.097 43.0413 301.022 42.934 300.873 42.878C300.733 42.8127 300.467 42.78 300.075 42.78V42.22H303.589V42.78C303.383 42.78 303.197 42.8127 303.029 42.878C302.861 42.9433 302.683 43.074 302.497 43.27C302.319 43.4567 302.114 43.7227 301.881 44.068C301.657 44.404 301.386 44.8473 301.069 45.398L299.025 48.898V50.326C299.025 50.7927 299.043 51.166 299.081 51.446C299.127 51.726 299.202 51.9407 299.305 52.09C299.417 52.23 299.566 52.3233 299.753 52.37C299.939 52.4167 300.182 52.44 300.481 52.44V53H295.497V52.44C295.786 52.44 296.024 52.4167 296.211 52.37C296.407 52.3233 296.561 52.23 296.673 52.09C296.785 51.95 296.859 51.7493 296.897 51.488C296.943 51.2173 296.967 50.8627 296.967 50.424V49.136L294.069 43.984Z" fill="#F06536"/>
</svg>
