<svg width="12" height="16" viewBox="0 0 12 16" fill="none" xmlns="http://www.w3.org/2000/svg">
<path d="M10 15.3333H2C1.72635 15.3339 1.4555 15.2783 1.20421 15.1699C0.952912 15.0616 0.726524 14.9028 0.539051 14.7035C0.351578 14.5041 0.207008 14.2684 0.114288 14.011C0.0215683 13.7535 -0.0173293 13.4798 2.48151e-06 13.2067L0.533336 5.58666C0.553809 5.24593 0.704181 4.92603 0.953476 4.69286C1.20277 4.45969 1.532 4.33101 1.87334 4.33333H3.33334C3.33334 3.62609 3.61429 1.94781 4.11438 1.44771C4.61448 0.947616 5.29276 0.666664 6 0.666664C6.70725 0.666664 7.38552 0.947616 7.88562 1.44771C8.38572 1.94781 8.66667 3.62609 8.66667 4.33333H10.1267C10.4658 4.33261 10.7924 4.46113 11.0401 4.69273C11.2878 4.92433 11.438 5.24161 11.46 5.58L12 13.2067C12.0173 13.4798 11.9784 13.7535 11.8857 14.011C11.793 14.2684 11.6484 14.5041 11.461 14.7035C11.2735 14.9028 11.0471 15.0616 10.7958 15.1699C10.5445 15.2783 10.2737 15.3339 10 15.3333ZM3.33334 5.66666H1.87334L1.33334 13.2933C1.32787 13.3842 1.34108 13.4752 1.37212 13.5608C1.40317 13.6463 1.45141 13.7246 1.51387 13.7908C1.57633 13.857 1.65168 13.9097 1.73529 13.9457C1.8189 13.9817 1.90898 14.0002 2 14H10C10.091 14.0002 10.1811 13.9817 10.2647 13.9457C10.3483 13.9097 10.4237 13.857 10.4861 13.7908C10.5486 13.7246 10.5968 13.6463 10.6279 13.5608C10.6589 13.4752 10.6721 13.3842 10.6667 13.2933L10.1267 5.66666H8.66667H8.5H8.28078H8.0441H7.64358H7.33334H4.66667H4.5213H4.34834H4.05705H3.80217H3.5286H3.33334ZM4.66667 4.33333H7.33334C7.33334 3.97971 7.19286 2.64057 6.94281 2.39052C6.69276 2.14047 6.35362 2 6 2C5.64638 2 5.30724 2.14047 5.05719 2.39052C4.80715 2.64057 4.66667 3.97971 4.66667 4.33333Z" fill="#E25F32"/>
</svg>
