<svg width="20" height="20" viewBox="0 0 20 20" fill="none" xmlns="http://www.w3.org/2000/svg">
<path d="M18.3334 19.1667C18.2237 19.1673 18.115 19.1463 18.0135 19.1048C17.9119 19.0633 17.8196 19.0022 17.7417 18.925L13.0167 14.1667C11.5124 15.3854 9.59819 15.9813 7.66793 15.8315C5.73767 15.6817 3.93826 14.7977 2.64 13.3615C1.34174 11.9252 0.643407 10.0459 0.68872 8.1104C0.734033 6.17487 1.51954 4.33034 2.88359 2.9564C4.24764 1.58247 6.08645 0.783664 8.02161 0.724377C9.95676 0.665091 11.841 1.34983 13.2866 2.63769C14.7322 3.92555 15.6292 5.71853 15.7929 7.64766C15.9566 9.57678 15.3746 11.4953 14.1667 13.0083L18.9 17.7417C18.9782 17.8191 19.0401 17.9113 19.0825 18.0128C19.1248 18.1144 19.1465 18.2233 19.1465 18.3333C19.1465 18.4433 19.1248 18.5522 19.0825 18.6538C19.0401 18.7553 18.9782 18.8475 18.9 18.925C18.749 19.075 18.5462 19.1614 18.3334 19.1667ZM8.33338 2.49999C7.17965 2.49999 6.05184 2.84211 5.09255 3.48308C4.13326 4.12406 3.38559 5.0351 2.94408 6.101C2.50257 7.1669 2.38705 8.33979 2.61213 9.47135C2.83721 10.6029 3.39278 11.6423 4.20859 12.4581C5.02439 13.2739 6.0638 13.8295 7.19535 14.0546C8.32691 14.2796 9.4998 14.1641 10.5657 13.7226C11.6316 13.2811 12.5426 12.5334 13.1836 11.5741C13.8246 10.6149 14.1667 9.48704 14.1667 8.33332C14.1667 6.78622 13.5521 5.30249 12.4582 4.20853C11.3642 3.11457 9.88047 2.49999 8.33338 2.49999Z" fill="#F06536"/>
</svg>
